PathFileType	4	(X/Y/Z)	C:/Users/beibeiliu/ov580/test_trc\sequence.35_training_dense_right.trc
DataRate	CameraRate	NumFrames	NumMarkers	Units	OrigDataRate	OrigDataStartFrame	OrigNumFrames
120	120	12	19	mm	120	36	283
Frame#	Time	ThumbCMC			ThumbMCP			ThumbIP			ThumbTip			IndexMCP			IndexPIP			IndexTip			MiddleMCP			MiddlePIP			MiddleTip			RingMCP			RingPIP			RingTip			PinkyMCP			PinkyPIP			PinkyTip			BackHand1			BackHand2			BackHand3	
		X0	Y0	Z0	X1	Y1	Z1	X2	Y2	Z2	X3	Y3	Z3	X4	Y4	Z4	X5	Y5	Z5	X6	Y6	Z6	X7	Y7	Z7	X8	Y8	Z8	X9	Y9	Z9	X10	Y10	Z10	X11	Y11	Z11	X12	Y12	Z12	X13	Y13	Z13	X14	Y14	Z14	X15	Y15	Z15	X16	Y16	Z16	X17	Y17	Z17	X18	Y18	Z18	
35	0.291667	172.204	4.91243	108.733	154.608	5.39775	81.3449	145.764	5.85024	63.3669	142.721	4.75969	43.4244	189.183	26.8411	41.9354	191.351	23.3165	21.2153	186.057	20.4571	-1.51775	213.389	18.2231	37.2631	215.76	16.3251	14.356	219.789	9.58952	-9.99178	230.001	4.01329	48.3217	231.046	5.94172	22.8393	236.561	1.99215	1.03547	241.093	-8.29941	57.8196	245.029	-10.8019	45.6004	254.6	-10.5562	26.446	221.966	8.9522	94.1116	220.17	4.41145	121.115	201.549	18.6156	102.951	
36	0.3	172.95	6.85523	108.206	157.169	3.45845	87.3975	148.29	7.42782	61.861	142.214	5.78027	45.2147	193.954	26.3761	46.744	189.759	27.1153	23.9384	190.239	20.4099	2.53408	211.594	20.623	41.3787	216.391	17.6429	19.4263	217.184	14.2249	-9.1881	229.194	6.30469	51.5563	233.022	5.92642	25.5223	234.713	3.51904	4.44394	242.047	-9.59761	65.4994	251.067	-10.4976	44.1887	254.518	-7.50308	32.1534	222.253	7.29055	96.8528	220.293	7.11627	119.371	200.846	18.5844	109.04	
37	0.308333	173.631	5.11724	114.283	155.414	4.73125	90.243	147.691	8.14461	64.1003	143.19	6.37379	46.1533	193.179	27.3433	51.4911	193.469	28.0771	27.9046	186.352	25.0694	3.61654	214.801	21.7145	45.2617	219.27	19.1194	21.5238	220.401	14.243	-5.48453	230.662	8.7118	54.796	233.48	8.4621	28.058	233.378	7.20881	9.39877	244.063	-8.50466	66.0349	250.823	-8.94365	46.8766	255.578	-6.32709	29.7243	224.738	9.0681	101.336	224.575	6.70321	122.528	201.781	20.8221	106.935	
38	0.316667	172.499	7.2938	117.351	156.525	6.11503	92.4236	149.087	9.42007	67.4972	143.386	6.78972	51.2159	193.365	30.9604	51.0786	190.788	32.1097	28.3022	187.82	25.37	5.04679	216.791	22.7561	49.797	216.098	24.0846	25.093	216.401	19.4969	-3.55191	229.324	12.3474	53.7967	234.605	11.3869	34.9948	232.957	10.7704	12.0759	242.014	-5.24006	69.9072	249.284	-7.29732	54.0357	253.667	-4.50203	35.1579	223.241	9.25513	103.298	220.989	8.70059	125.055	202.614	23.0467	111.426	
39	0.325	168.413	10.3962	118.753	157.486	9.77258	90.1184	152.596	11.2314	69.1111	144.292	9.54657	53.2069	190.228	34.1762	59.494	189.179	37.6586	34.0076	185.608	31.693	8.91395	212.738	29.5901	50.1422	216.441	27.7274	24.428	216.964	21.1927	-1.43937	231.637	14.9108	55.7748	232.691	16.4962	34.7563	232.319	14.4904	11.98	239.995	0.701843	69.7989	249.454	-1.94913	52.6272	254.989	-1.3061	33.6939	225.655	11.3328	104.63	222.624	7.23631	130.051	200.488	25.9311	114	
40	0.333333	169.244	14.008	117.887	156.886	10.7411	94.0524	148.791	13.5023	72.7236	144.41	14.5926	53.3177	189.925	39.9333	61.0399	191.493	40.496	35.6841	186.843	34.0081	8.71975	215.29	31.8662	54.5192	214.153	33.238	30.6411	214.904	27.6726	1.60193	230.694	17.3385	61.8783	231.964	21.0615	37.2881	234.145	19.1525	16.4763	243.021	1.91779	72.2462	249.793	1.53476	53.8883	255.752	2.95233	36.8425	222.618	15.8404	105.867	222.061	11.9858	131.376	201.641	25.0614	116.524	
41	0.341667	170.357	15.4968	119.294	154.123	13.0533	96.9527	149.975	17.0638	72.5185	141.849	17.856	51.6882	187.946	45.3125	62.022	189.068	46.1033	36.1173	183.777	41.2788	13.8859	212.514	38.8974	53.124	216.088	37.3407	29.5769	215.762	30.9058	1.78137	230.329	23.8918	59.6169	230.377	27.1127	40.2904	232.773	23.9627	14.0991	241.331	5.94577	74.677	246.498	8.78691	51.5674	254.079	7.93828	38.2158	223.592	19.3723	109.37	220.548	13.499	128.938	197.605	29.7966	118.849	
42	0.35	170.956	18.9457	117.567	155.319	15.6985	95.6926	146.864	20.6257	71.2844	139.809	21.8598	50.2174	190.837	48.7693	58.6103	189.784	50.0571	37.5616	184.64	45.0436	13.9315	214.443	42.5077	53.1138	216.049	43.2633	32.0409	214.001	38.7109	3.37156	225.607	29.5169	60.59	230.097	32.0402	37.3295	228.616	32.2824	17.8406	241.371	10.4163	73.0084	247.278	12.2458	55.5571	253.063	14.5362	35.3519	222.373	22.9942	108.593	221.229	16.7722	128.358	197.796	33.9111	115.358	
43	0.358333	167.454	22.7642	115.767	156.255	19.3782	92.0095	147.721	22.8594	70.7756	141.944	23.9164	51.5249	190.706	52.0538	61.4491	185.94	57.2088	31.7718	182.089	51.4101	11.9366	210.996	46.0373	55.8076	211.123	51.0674	28.4008	211.072	46.4977	3.33749	226.287	34.2845	60.3804	228.619	37.5756	33.1983	231.091	34.6633	14.2571	241.724	16.2831	69.0437	244.283	18.9853	50.8267	250.815	19.1567	32.47	220.932	26.6219	106.381	220.199	21.3997	126.854	199.978	34.4768	116.773	
44	0.366667	171.66	25.9693	108.575	156.385	23.1947	88.6859	147.649	26.2277	67.2694	140.486	27.6086	46.5866	189.051	60.4194	53.8835	185.737	62.7858	31.7257	184.818	54.5932	6.30846	210.283	52.8899	49.1756	213.938	54.7373	23.2605	210.944	51.0919	-2.87808	227.235	39.4904	52.19	228.495	43.2171	28.2785	229.192	39.5714	8.83365	236.921	22.2668	63.7926	245.368	22.3692	44.1811	247.008	25.9904	26.3239	223.162	33.1493	98.7053	219.715	21.7877	124.886	197.886	39.4668	113.263	
45	0.375	170.909	29.5467	103.528	154.222	28.6853	80.2573	143.992	32.4384	59.9951	136.79	33.1019	39.1303	191.056	62.0234	52.2693	185.003	67.0375	25.9881	181.444	59.9947	-0.428239	209.438	58.2273	44.8781	210.736	61.84	20.6789	211.183	55.3057	-8.4935	224.439	43.3595	50.8599	228.169	47.66	23.2452	227.798	46.0741	2.27884	240.959	25.794	57.1637	242.48	28.1443	41.3651	252.031	27.9408	20.9542	219.637	35.4834	94.5377	222.418	25.6938	120.047	195.888	45.9076	105.141	
46	0.383333	167.638	34.2917	96.3934	154.869	32.0171	74.1624	142.87	35.8823	50.7593	138.422	34.7789	35.5898	187.284	66.9188	43.613	188.336	69.8473	17.7922	183.986	62.3993	-9.35838	210.755	60.6625	37.5785	211.159	65.2282	10.6219	210.943	58.779	-15.8265	224.746	47.78	43.3233	228.003	51.848	16.0588	227.01	49.6781	-5.88659	242.938	29.1366	49.3875	247.358	29.7357	29.0091	248.056	33.6945	12.7482	224.5	37.8785	82.9798	222.813	31.6706	108.208	199.844	47.8061	97.6227	
